<?xml version="1.0" encoding="utf-8"?>
<!-- Generator: Adobe Illustrator 24.3.0, SVG Export Plug-In . SVG Version: 6.00 Build 0)  -->
<svg version="1.1" id="Calque_1" xmlns="http://www.w3.org/2000/svg" xmlns:xlink="http://www.w3.org/1999/xlink" x="0px" y="0px"
	 viewBox="0 0 310.75 324.79" style="enable-background:new 0 0 310.75 324.79;" xml:space="preserve">
<style type="text/css">
	.st0{fill:#FFFFFF;}
</style>
<g>
	<path d="M292.81,0.43c-18.74,8.53-36.85,18.11-56.12,21.85c-0.4-3.69-0.59-7.07-1.17-10.39c-0.38-2.15-1.33-4.19-2.02-6.29
		c-1.83,1-3.93,1.7-5.44,3.06c-26.66,23.95-56.98,42.12-89.38,57.04c-0.25,0.12-0.54,0.15-1.07,0.3c-0.17-2.44-0.16-4.82-0.58-7.11
		c-0.21-1.13-1-2.51-1.93-3.01c-0.53-0.29-2.11,0.74-2.85,1.52c-3.95,4.22-7.58,8.76-11.69,12.8c-8.63,8.46-19.1,14.16-30.35,18.11
		c-23.58,8.29-37.86,25.93-48.82,47.14c-0.41,0.79-0.74,1.62-1.43,3.15c-1.4-3.93-2.59-7.28-3.87-10.88l0.12-0.12
		c-0.04-0.05-0.07-0.1-0.1-0.15c-0.11-0.12-0.22-0.25-0.32-0.38l-5.04,5.04c-0.09,0.62-0.32,1.23-0.71,1.82l0.35-0.35
		c-4.53,5.83-10.12,12.23-14.83,19.23c-20.68,30.72-20.66,74-0.27,104.9c1.04,1.57,1.98,3.23,2.74,4.94
		c0.37,0.84,0.55,2.01,0.27,2.84c-2.27,6.78,1,15.12,7.18,18.4c1.16,0.61,2.26,1.63,2.97,2.73c4.27,6.57,9.33,12.4,15.23,17.55
		c1.2,1.05,1.75,2.84,2.61,4.3c-0.05,0.03-0.09,0.06-0.14,0.09c0.44,0.66,0.71,1.4,0.8,2.18c0.33,0.19,0.63,0.41,0.92,0.66
		c0.28,0.18,0.54,0.38,0.79,0.6c0.04-0.05,0.08-0.09,0.12-0.14c0.42,0.29,0.85,0.59,1.27,0.88c0.95,0.13,1.93,0.59,2.84,1.49
		c0.41,0.4,0.81,0.83,1.21,1.28c0.59,0.4,1.17,0.81,1.77,1.19c2.12,1.36,4.34,1.79,6.8,0.58c0.84-0.41,2.15-0.42,3.04-0.09
		c12.46,4.68,25.29,6.29,38.53,5.02c1.16-0.11,2.78,0.2,3.52,0.97c1.48,1.54,3.07,1.91,4.85,1.29c5.82-2.04,11.6-4.2,17.37-6.37
		c0.63-0.23,1.3-0.68,1.66-1.22c3.4-5.03,8.57-6.99,13.97-9.24c8.9-3.7,17.6-8.07,25.89-12.99c11.38-6.75,22.48-14.02,33.34-21.58
		c7.96-5.55,14.67-12.61,20.33-20.55c0.55-0.77,0.56-1.94,0.82-2.92c-1.03-0.08-2.15-0.44-3.09-0.17c-1.88,0.54-3.65,1.42-6.12,2.43
		c0.59-1.08,0.79-1.58,1.1-1.99c7.4-9.52,14.69-19.14,22.28-28.51c4.51-5.57,9.3-10.95,14.35-16.04
		c7.32-7.39,14.7-14.67,19.65-23.96c1.45-2.72,2.55-5.62,3.68-8.5c0.28-0.72,0.02-1.66,0-2.49c-0.85,0.04-1.79-0.14-2.54,0.16
		c-2.5,0.99-4.86,2.31-7.39,3.2c-3.47,1.22-7.01,1.24-11.05-0.24c1.87-2.49,3.57-4.73,5.25-6.98
		c16.03-21.46,30.15-44.09,41.49-68.38c3.86-8.27,6.6-16.91,6.49-26.22c-0.01-1.06,0.51-2.12,0.61-3.2
		c0.08-0.81,0.18-2.04-0.26-2.36c-0.54-0.39-1.8-0.31-2.44,0.07c-1.79,1.06-3.45,2.35-5.12,3.62c-7.62,5.79-16.06,6.86-25.43,4.67
		c9.22-23.33,13.3-47.63,17.62-72.21c0.01-0.4,0.08-0.79,0.2-1.19L293.91,0C293.55,0.2,293.18,0.34,292.81,0.43z M114.41,318.48
		c0.04,0.24,0.08,0.48,0.11,0.72c3.43-0.7,6.87-1.39,10.3-2.09c0.07,0.18,0.13,0.36,0.2,0.54c-4.56,1.54-9.11,3.13-13.7,4.58
		c-0.59,0.19-1.96-0.22-2.02-0.53c-0.57-2.86-2.67-2.22-4.46-2.02c-12.7,1.46-25.09,0.28-37.06-4.36c-0.64-0.25-1.27-0.53-2.13-0.88
		c0.39-0.84,0.67-1.42,1.19-2.55c-1.22,0.34-2.18,0.31-2.58,0.78c-3.24,3.71-6.37,3.02-9.65,0.08c-0.87-0.78-2.02-1.26-3.06-1.86
		c-2.7-1.55-4.12-3.67-3.33-6.93c0.17-0.72-0.02-1.53-0.65-1.57c-1.21-0.47-2.66-0.65-3.58-1.44c-6-5.14-11.22-10.95-15-18.09
		c1.24-0.78,2.34-1.47,3.44-2.16c-0.12-0.35-0.25-0.7-0.37-1.06c-1.09,0.28-2.4,0.27-3.24,0.89c-1.71,1.26-2.89,0.71-4.18-0.52
		c-2.96-2.83-4.56-6.32-4.57-10.36c0-1.02,1.17-2.16,2.03-3.03c0.77-0.79,1.84-1.29,2.78-1.91c-1.06-0.2-2.13-0.39-3.42-0.63
		c-4.69-8.32-4.19-34.02,1.13-45.05c0.53,0.58,1.01,1.11,1.55,1.7c0.31-0.31,0.71-0.59,0.67-0.68c-0.53-1.24-1.21-2.42-1.66-3.69
		c-0.47-1.31-1.41-2.96-1-4.01c3.66-9.38,7.52-18.69,15.11-25.78c2.21-2.06,4.6-2.97,7.62-1.68c1.7,0.73,3.59,1.14,5.29-1.01
		c-1.62-0.16-2.86-0.28-4.92-0.49c10.2-9.69,21.7-15.53,34.5-19.35c0.3,0.66,0.58,1.24,1.02,2.2c4.94-9.19,11.27-10.07,18.65-4.16
		c1.44-0.36,2.79-1,4.12-0.97c12.37,0.26,24.01,3.52,35.04,9.01c1.95,0.97,3.67,2.39,5.54,3.52c1.76,1.06,3.39,3.08,5.76,0.86
		c0.32-0.3,1.69-0.01,2.13,0.44c4.13,4.3,8.17,8.69,12.22,13.07c0.15,0.16,0.07,0.52,0.15,1.24l-7.29-7.29
		c-0.15,0.11-0.3,0.22-0.45,0.33c1.9,2.65,3.77,5.33,5.71,7.95c7.1,9.54,12.66,19.78,14.62,31.69c0.36,2.17,1.41,3.57,3.57,4.33
		c0.89,0.31,2.09,1.28,2.19,2.07c0.38,3.01,0.51,6.08,0.42,9.12c-0.03,0.93-0.89,2.45-1.64,2.64c-3.16,0.82-2.77,3.27-3.2,5.57
		c-1.04,5.57-2.33,11.1-3.51,16.65c-0.26,1.21-0.52,2.42-0.93,4.35c1.25-0.8,1.83-1.18,2.77-1.78c0.26,3.81-1.58,6.57-3.56,9.17
		c-0.58,0.76-1.89,0.98-3.64,1.81C157.41,297.16,138.9,311.63,114.41,318.48z M230.76,146.87c2.54-0.21,5.03-1.03,7.97-1.67
		c-0.24,1.32-0.39,2.64-0.73,3.9c-3.71,13.71-10.82,25.66-19.45,36.75c-4.35,5.59-9.04,10.91-13.51,16.41
		c-1.04,1.28-1.81,2.77-2.89,4.45c5.92,3.06,11.22,0.11,17.13-0.54c-11.05,18.87-21.93,37.19-40.62,50.22
		c0.6-4.74,1.08-8.75,1.67-12.74c0.07-0.47,0.67-0.94,1.12-1.26c6.21-4.33,5.81-14.99-0.64-18.7c-0.81-0.47-1.61-1.48-1.83-2.38
		c-2.42-9.74-5.88-19.01-11.7-27.3c-0.57-0.81-0.82-2.09-0.69-3.08c0.34-2.53-0.53-4.45-2.28-6.17c-3.76-3.7-7.47-7.44-11.19-11.18
		c-1.26-1.27-2.45-1.71-4.22-0.63c-0.73,0.44-2.34,0.19-3.14-0.36c-13.27-9.1-28.08-12.93-44-13.3c-1.43-0.03-2.84-0.98-4.26-1.5
		c-1-0.37-2.03-1.09-3.01-1.04c-2.98,0.15-5.96,0.48-8.9,0.99c-1.11,0.19-2.59,0.81-3.04,1.68c-1.28,2.48-3.56,2.97-5.83,3.69
		c-9.2,2.92-17.71,7.21-25.46,12.97c-0.47,0.35-0.98,0.64-2.1,0.6c1.28-2.56,2.43-5.19,3.87-7.65c5.9-10.05,13.79-18.55,21.61-27.09
		c4.99-5.45,10.08-10.8,15.13-16.19c0.8-0.85,1.65-1.66,3.04-3.04c1.02,4.14,1.89,7.7,2.92,11.91c1.55-1.55,2.73-2.45,3.57-3.61
		c8.84-12.11,20.5-20.52,34.23-26.19c9.49-3.91,19.14-7.42,28.57-11.48c9.16-3.94,17.03-9.9,24.16-16.84c0.48-0.47,1.01-0.9,1.9-1.7
		c0.11,1.12,0.25,1.83,0.25,2.54c0.02,8.26-1.62,16.24-4.05,24.11c-0.66,2.12-1.03,4.33-1.68,7.13
		c24.8-9.41,47.33-21.49,70.07-34.08c-1.13,3.92-1.98,7.94-3.44,11.74c-4.79,12.46-9.7,24.87-14.78,37.22
		c-2.42,5.89-5.34,11.58-7.99,17.39C224.2,145.98,225.09,147.35,230.76,146.87z M291.79,4.79c-3.04,20.75-6.84,41.33-13.94,61.16
		c-0.87,2.44-1.93,4.82-2.92,7.21c-1.06,2.55-0.18,3.91,2.47,4.49c9.95,2.2,18.98,0.07,27.31-5.59c0.81-0.55,1.62-1.1,2.44-1.66
		c0.39,0.04,0.78,0.08,1.18,0.12c-0.22,1.11-0.55,2.21-0.63,3.33c-0.77,9.71-4.03,18.71-8.28,27.33
		c-11.9,24.12-26.24,46.73-42.72,67.99c-0.91,1.18-1.72,2.45-2.52,3.71c-0.31,0.49-0.49,1.07-0.87,1.9
		c7.03,3.88,13.85,2.53,20.67-0.33c0.25,0.19,0.49,0.38,0.74,0.57c-2.22,3.82-4.01,7.97-6.74,11.37
		c-4.55,5.67-9.45,11.1-14.65,16.18c-9.62,9.39-17.55,20.11-25.55,30.83c-3.81,5.11-8.15,9.81-12.21,14.74
		c-1.23,1.49-2.29,3.13-3.43,4.7c0.13,0.36,0.26,0.71,0.39,1.07c2.55-0.01,5.1-0.02,7.56-0.03c-4.04,10.49-51.31,43.33-68.6,47.69
		c4.4-5.13,9.05-10.54,13.66-15.97c0.7-0.83,1.23-1.81,1.86-2.71c1.54-2.22,2.82-4.39,5.51-5.87c3.57-1.97,5.25-5.93,6.16-9.88
		c0.27-1.18-0.32-2.76-0.98-3.89c-1.08-1.84-0.83-3.32,0.83-4.35c16.2-10.07,26.68-25.17,36.3-41.04c2.27-3.75,4.64-7.43,6.91-11.18
		c0.55-0.9,0.9-1.92,1.56-3.35c-6.15,1.08-11.8,2.08-17.45,3.08c-0.18-0.39-0.36-0.77-0.54-1.16c2.15-2.64,4.38-5.22,6.45-7.92
		c5.88-7.67,12.02-15.17,17.44-23.15c6.23-9.18,9.16-19.86,12.28-30.38c0.11-0.38,0.19-0.77,0.35-1.39
		c-5.12-0.52-9.16,4.39-14.24,1.72c10.74-23.83,21.14-47.78,27.85-73.46c-22.53,12.84-45.27,24.92-69.68,34.34
		c2.87-10.81,5.56-21.73,4.2-33.75c-1.51,0.93-2.53,1.34-3.26,2.05c-13.46,13.23-29.63,21.66-47.4,27.58
		c-9.81,3.27-19.63,6.95-27.39,14.27c-4.27,4.03-8.29,8.33-12.4,12.54c-0.82,0.84-1.52,1.79-2.73,3.25
		c-0.72-2.92-1.18-5.29-1.9-7.57c-1.08-3.42-2.01-3.74-4.33-1.15c-11.7,13.08-23.46,26.12-34.8,39.51
		c-3.15,3.72-5.09,8.53-7.31,12.98c-1.9,3.81-3.59,7.05-8.59,8.11c-4.81,1.02-7.83,5.36-10.18,9.6c-3.09,5.57-6.05,11.22-8.63,17.03
		c-0.85,1.92-0.35,4.44-0.44,6.68c-0.03,0.77,0.19,1.61-0.05,2.3c-3.98,11.66-4.6,23.63-3.49,35.77c0.04,0.4,0.24,0.77,0.16,1.16
		C7.02,245.54,0,212.69,3.42,191.26c4-25.07,13.29-37.46,31.38-58.23c1.71,3.67,3.31,7.11,5.25,11.28c0.99-1.43,1.58-1.96,1.78-2.62
		c4.17-13.69,12.9-24.33,22.65-34.36c7.46-7.67,16.31-13.02,26.34-16.57c14.97-5.3,27.8-13.79,38.34-25.71
		c1.68-1.9,3.27-3.87,4.9-5.81c0.27,0.08,0.54,0.16,0.8,0.25c-0.08,2.22-0.17,4.44-0.25,6.66c-0.13,3.62,0.59,4.01,3.94,2.52
		c20.91-9.31,40.66-20.64,59.72-33.29c11.43-7.59,21.86-16.37,32.17-25.34c0.51-0.44,1.07-0.83,2.25-1.74
		c0.11,3.57,0.24,6.58,0.27,9.59c0.01,1.19-0.22,2.38-0.29,3.58c-0.13,2.28,0.97,3.52,3.23,3.12c4.41-0.77,9.03-1.13,13.12-2.76
		c12.96-5.14,25.72-10.77,38.55-16.23c1.27-0.54,2.51-1.15,3.84-1.76C291.6,4.28,291.83,4.56,291.79,4.79z"/>
	<path d="M34.8,133.03c1.71,3.67,3.31,7.11,5.25,11.28c0.99-1.43,1.58-1.96,1.78-2.62c4.17-13.69,12.9-24.33,22.65-34.36
		c7.46-7.67,16.31-13.02,26.34-16.57c14.97-5.3,27.8-13.79,38.34-25.71c1.68-1.9,3.27-3.87,4.9-5.81c0.27,0.08,0.54,0.16,0.8,0.25
		c-0.08,2.22-0.17,4.44-0.25,6.66c-0.13,3.62,0.59,4.01,3.94,2.52c20.91-9.31,40.66-20.64,59.72-33.29
		c11.43-7.59,21.86-16.37,32.17-25.34c0.51-0.44,1.07-0.83,2.25-1.74c0.11,3.57,0.24,6.58,0.27,9.59c0.01,1.19-0.22,2.38-0.29,3.58
		c-0.13,2.28,0.97,3.52,3.23,3.12c4.41-0.77,9.03-1.13,13.12-2.76c12.96-5.14,25.72-10.77,38.55-16.23
		c1.27-0.54,2.51-1.15,3.84-1.76c0.18,0.44,0.41,0.71,0.37,0.94c-3.04,20.75-6.84,41.33-13.94,61.16c-0.87,2.44-1.93,4.82-2.92,7.21
		c-1.06,2.55-0.18,3.91,2.47,4.49c9.95,2.2,18.98,0.07,27.31-5.59c0.81-0.55,1.62-1.1,2.44-1.66c0.39,0.04,0.78,0.08,1.18,0.12
		c-0.22,1.11-0.55,2.21-0.63,3.33c-0.77,9.71-4.03,18.71-8.28,27.33c-11.9,24.12-26.24,46.73-42.72,67.99
		c-0.91,1.18-1.72,2.45-2.52,3.71c-0.31,0.49-0.49,1.07-0.87,1.9c7.03,3.88,13.85,2.53,20.67-0.33c0.25,0.19,0.49,0.38,0.74,0.57
		c-2.22,3.82-4.01,7.97-6.74,11.37c-4.55,5.67-9.45,11.1-14.65,16.18c-9.62,9.39-17.55,20.11-25.55,30.83
		c-3.81,5.11-8.15,9.81-12.21,14.74c-1.23,1.49-2.29,3.13-3.43,4.7c0.13,0.36,0.26,0.71,0.39,1.07c2.55-0.01,5.1-0.02,7.56-0.03
		c-4.04,10.49-51.31,43.33-68.6,47.69c4.4-5.13,9.05-10.54,13.66-15.97c0.7-0.83,1.23-1.81,1.86-2.71c1.54-2.22,2.82-4.39,5.51-5.87
		c3.57-1.97,5.25-5.93,6.16-9.88c0.27-1.18-0.32-2.76-0.98-3.89c-1.08-1.84-0.83-3.32,0.83-4.35c16.2-10.07,26.68-25.17,36.3-41.04
		c2.27-3.75,4.64-7.43,6.91-11.18c0.55-0.9,0.9-1.92,1.56-3.35c-6.15,1.08-11.8,2.08-17.45,3.08c-0.18-0.39-0.36-0.77-0.54-1.16
		c2.15-2.64,4.38-5.22,6.45-7.92c5.88-7.67,12.02-15.17,17.44-23.15c6.23-9.18,9.16-19.86,12.28-30.38
		c0.11-0.38,0.19-0.77,0.35-1.39c-5.12-0.52-9.16,4.39-14.24,1.72c10.74-23.83,21.14-47.78,27.85-73.46
		c-22.53,12.84-45.27,24.92-69.68,34.34c2.87-10.81,5.56-21.73,4.2-33.75c-1.51,0.93-2.53,1.34-3.26,2.05
		c-13.46,13.23-29.63,21.66-47.4,27.58c-9.81,3.27-19.63,6.95-27.39,14.27c-4.27,4.03-8.29,8.33-12.4,12.54
		c-0.82,0.84-1.52,1.79-2.73,3.25c-0.72-2.92-1.18-5.29-1.9-7.57c-1.08-3.42-2.01-3.74-4.33-1.15
		c-11.7,13.08-23.46,26.12-34.8,39.51c-3.15,3.72-5.09,8.53-7.31,12.98c-1.9,3.81-3.59,7.05-8.59,8.11
		c-4.81,1.02-7.83,5.36-10.18,9.6c-3.09,5.57-6.05,11.22-8.63,17.03c-0.85,1.92-0.35,4.44-0.44,6.68c-0.03,0.77,0.19,1.61-0.05,2.3
		c-3.98,11.66-4.6,23.63-3.49,35.77c0.04,0.4,0.24,0.77,0.16,1.16C7.02,245.54,0,212.69,3.42,191.26
		C7.42,166.19,16.71,153.8,34.8,133.03z"/>
	<path class="st0" d="M65.65,314.44c0.39-0.84,0.67-1.42,1.19-2.55c-1.22,0.34-2.18,0.31-2.58,0.78c-3.24,3.71-6.37,3.02-9.65,0.08
		c-0.87-0.78-2.02-1.26-3.06-1.86c-2.7-1.55-4.12-3.67-3.33-6.93c0.17-0.72-0.02-1.53-0.65-1.57c-1.21-0.47-2.66-0.65-3.58-1.44
		c-6-5.14-11.22-10.95-15-18.09c1.24-0.78,2.34-1.47,3.44-2.16c-0.12-0.35-0.25-0.7-0.37-1.06c-1.09,0.28-2.4,0.27-3.24,0.89
		c-1.71,1.26-2.89,0.71-4.18-0.52c-2.96-2.83-4.56-6.32-4.57-10.36c0-1.02,1.17-2.16,2.03-3.03c0.77-0.79,1.84-1.29,2.78-1.91
		c-1.06-0.2-2.13-0.39-3.42-0.63c-4.69-8.32-4.19-34.02,1.13-45.05c0.53,0.58,1.01,1.11,1.55,1.7c0.31-0.31,0.71-0.59,0.67-0.68
		c-0.53-1.24-1.21-2.42-1.66-3.69c-0.47-1.31-1.41-2.96-1-4.01c3.66-9.38,7.52-18.69,15.11-25.78c2.21-2.06,4.6-2.97,7.62-1.68
		c1.7,0.73,3.59,1.14,5.29-1.01c-1.62-0.16-2.86-0.28-4.92-0.49c10.2-9.69,21.7-15.53,34.5-19.35c0.3,0.66,0.58,1.24,1.02,2.2
		c4.94-9.19,11.27-10.07,18.65-4.16c1.44-0.36,2.79-1,4.12-0.97c12.37,0.26,24.01,3.52,35.04,9.01c1.95,0.97,3.67,2.39,5.54,3.52
		c1.76,1.06,3.39,3.08,5.76,0.86c0.32-0.3,1.69-0.01,2.13,0.44c4.13,4.3,8.17,8.69,12.22,13.07c0.15,0.16,0.07,0.52,0.15,1.24
		c-2.62-2.62-4.96-4.96-7.29-7.29c-0.15,0.11-0.3,0.22-0.45,0.33c1.9,2.65,3.77,5.33,5.71,7.95c7.1,9.54,12.66,19.78,14.62,31.69
		c0.36,2.17,1.41,3.57,3.57,4.33c0.89,0.31,2.09,1.28,2.19,2.07c0.38,3.01,0.51,6.08,0.42,9.12c-0.03,0.93-0.89,2.45-1.64,2.64
		c-3.16,0.82-2.77,3.27-3.2,5.57c-1.04,5.57-2.33,11.1-3.51,16.65c-0.26,1.21-0.52,2.42-0.93,4.35c1.25-0.8,1.83-1.18,2.77-1.78
		c0.26,3.81-1.58,6.57-3.56,9.17c-0.58,0.76-1.89,0.98-3.64,1.81c-12.02,21.31-30.53,35.79-55.02,42.63
		c0.04,0.24,0.08,0.48,0.11,0.72c3.43-0.7,6.87-1.39,10.3-2.09c0.07,0.18,0.13,0.36,0.2,0.54c-4.56,1.54-9.11,3.13-13.7,4.58
		c-0.59,0.19-1.96-0.22-2.02-0.53c-0.57-2.86-2.67-2.22-4.46-2.02c-12.7,1.46-25.09,0.28-37.06-4.36
		C67.14,315.07,66.51,314.8,65.65,314.44z M115.49,304.23c1.35,1.51,2.5,3.92,4.23,4.45c2.05,0.62,4.61-0.31,6.91-0.74
		c0.95-0.17,1.85-0.73,2.73-1.19c7.29-3.77,13.35-9.04,18.44-15.41c1.98-2.47,3.81-5.12,5.28-7.92c0.64-1.22,0.68-3.25,0.09-4.47
		c-0.68-1.4-2.37-2.31-4.46-4.2c2.37,4.48-2.46,4.74-3.08,7.36c1.98-0.63,3.84-1.23,5.7-1.82c-0.3,2.14-0.89,3.73-1.79,5.11
		c-6.6,10.12-14.96,18.13-26.83,21.73c-0.99,0.3-2.78,0.36-3.13-0.17c-0.58-0.87-0.47-2.35-0.28-3.51c0.17-1.05,0.84-2.03,1.29-3.04
		c-0.13-0.06-0.26-0.12-0.39-0.18C118.79,301.43,117.39,302.62,115.49,304.23z M139.97,185.25c-1.84-1.19-3.48-2.57-5.35-3.4
		c-2.93-1.29-5.11,0.51-4.36,3.59c1.22,4.97,4.93,7.85,9.28,9.84c0.94,0.43,2.82-0.23,3.73-1.02c0.62-0.53,0.73-2.35,0.31-3.23
		C142.62,188.99,141.2,187.16,139.97,185.25z M146.14,286.54c-4.1-0.63-20.42,12.62-20.72,16.69
		C132.32,297.67,139.17,292.15,146.14,286.54z M141.85,201.26c-3.16-1.98-6.92-3.7-9.82-6.35c-2.99-2.73-5.14-6.38-7.54-9.49
		C124.95,192.87,135.61,202.46,141.85,201.26z M27.88,206.67c3.23-4.98,6.36-9.8,9.4-14.47C34.3,191.94,27.43,201.87,27.88,206.67z
		 M133.32,175.91c3.87,3.36,7.69,6.68,11.52,10.01C143.76,181.39,138.49,176.83,133.32,175.91z M21.76,270
		c1.08,3.14,1.98,5.75,3.04,8.81C26.51,274.88,25.41,271.65,21.76,270z M51.2,307.34c3.02,1.78,5.5,3.25,8.1,4.78
		C58.71,308.72,55.75,306.83,51.2,307.34z M179.67,236.51c0.3-0.14,0.61-0.29,0.91-0.43c-0.06-2.06-0.12-4.12-0.17-6.18
		c-0.24-0.11-0.48-0.21-0.71-0.32c-0.47,1-1.36,2.01-1.32,2.98C178.44,233.89,179.21,235.19,179.67,236.51z"/>
	<path class="st0" d="M178.66,256.4c0.6-4.74,1.08-8.75,1.67-12.74c0.07-0.47,0.67-0.94,1.12-1.26c6.21-4.33,5.81-14.99-0.64-18.7
		c-0.81-0.47-1.61-1.48-1.83-2.38c-2.42-9.74-5.88-19.01-11.7-27.3c-0.57-0.81-0.82-2.09-0.69-3.08c0.34-2.53-0.53-4.45-2.28-6.17
		c-3.76-3.7-7.47-7.44-11.19-11.18c-1.26-1.27-2.45-1.71-4.22-0.63c-0.73,0.44-2.34,0.19-3.14-0.36c-13.27-9.1-28.08-12.93-44-13.3
		c-1.43-0.03-2.84-0.98-4.26-1.5c-1-0.37-2.03-1.09-3.01-1.04c-2.98,0.15-5.96,0.48-8.9,0.99c-1.11,0.19-2.59,0.81-3.04,1.68
		c-1.28,2.48-3.56,2.97-5.83,3.69c-9.2,2.92-17.71,7.21-25.46,12.97c-0.47,0.35-0.98,0.64-2.1,0.6c1.28-2.56,2.43-5.19,3.87-7.65
		c5.9-10.05,13.79-18.55,21.61-27.09c4.99-5.45,10.08-10.8,15.13-16.19c0.8-0.85,1.65-1.66,3.04-3.04c1.02,4.14,1.89,7.7,2.92,11.91
		c1.55-1.55,2.73-2.45,3.57-3.61c8.84-12.11,20.5-20.52,34.23-26.19c9.49-3.91,19.14-7.42,28.57-11.48
		c9.16-3.94,17.03-9.9,24.16-16.84c0.48-0.47,1.01-0.9,1.9-1.7c0.11,1.12,0.25,1.83,0.25,2.54c0.02,8.26-1.62,16.24-4.05,24.11
		c-0.66,2.12-1.03,4.34-1.68,7.13c24.8-9.41,47.33-21.49,70.07-34.08c-1.13,3.92-1.98,7.94-3.44,11.74
		c-4.79,12.46-9.7,24.87-14.78,37.22c-2.42,5.89-5.34,11.58-7.99,17.39c-2.34,5.13-1.44,6.49,4.22,6.02
		c2.54-0.21,5.03-1.03,7.97-1.67c-0.24,1.32-0.39,2.64-0.73,3.9c-3.71,13.71-10.82,25.66-19.45,36.75
		c-4.35,5.59-9.04,10.91-13.51,16.41c-1.04,1.28-1.81,2.77-2.89,4.45c5.92,3.06,11.22,0.11,17.13-0.54
		C208.23,225.05,197.35,243.37,178.66,256.4z"/>
	<path d="M115.49,304.23c1.91-1.62,3.3-2.8,4.7-3.99c0.13,0.06,0.26,0.12,0.39,0.18c-0.45,1.01-1.12,1.98-1.29,3.04
		c-0.19,1.16-0.3,2.65,0.28,3.51c0.35,0.53,2.14,0.47,3.13,0.17c11.87-3.61,20.23-11.61,26.83-21.73c0.9-1.38,1.5-2.97,1.79-5.11
		c-1.86,0.59-3.72,1.19-5.7,1.82c0.62-2.62,5.45-2.89,3.08-7.36c2.1,1.88,3.78,2.79,4.46,4.2c0.59,1.22,0.55,3.26-0.09,4.47
		c-1.47,2.8-3.3,5.44-5.28,7.92c-5.09,6.37-11.15,11.64-18.44,15.41c-0.88,0.46-1.78,1.02-2.73,1.19c-2.31,0.42-4.86,1.35-6.91,0.74
		C117.99,308.16,116.84,305.74,115.49,304.23z"/>
	<path d="M139.97,185.25c1.24,1.92,2.66,3.74,3.61,5.78c0.42,0.89,0.31,2.71-0.31,3.23c-0.91,0.78-2.79,1.45-3.73,1.02
		c-4.36-1.99-8.07-4.87-9.28-9.84c-0.75-3.07,1.43-4.88,4.36-3.59C136.49,182.68,138.12,184.05,139.97,185.25z M138.54,186.43
		c-1.47-1.04-2.78-2.12-4.23-2.92c-0.74-0.41-1.75-0.31-2.64-0.44c-0.03,1.2-0.49,2.63,0,3.55c0.87,1.62,2.2,3.07,3.57,4.34
		c1.36,1.25,2.94,2.33,4.57,3.19c0.62,0.33,1.93,0.14,2.42-0.34c0.37-0.36,0.2-1.7-0.18-2.34
		C140.99,189.7,139.7,188.07,138.54,186.43z"/>
	<path d="M146.14,286.54c-6.97,5.61-13.82,11.13-20.72,16.69C125.72,299.15,142.04,285.91,146.14,286.54z"/>
	<path d="M141.85,201.26c-6.24,1.2-16.89-8.39-17.37-15.85c2.41,3.11,4.56,6.76,7.54,9.49
		C134.93,197.56,138.69,199.28,141.85,201.26z"/>
	<path d="M27.88,206.67c-0.44-4.8,6.43-14.73,9.4-14.47C34.24,196.87,31.11,201.69,27.88,206.67z"/>
	<path d="M133.32,175.91c5.17,0.91,10.43,5.48,11.52,10.01C141.02,182.6,137.19,179.27,133.32,175.91z"/>
	<path d="M21.76,270c3.64,1.65,4.75,4.88,3.04,8.81C23.75,275.75,22.85,273.14,21.76,270z"/>
	<path d="M51.2,307.34c4.55-0.5,7.51,1.38,8.1,4.78C56.7,310.58,54.22,309.12,51.2,307.34z"/>
	<path d="M179.67,236.51c-0.46-1.31-1.23-2.61-1.29-3.95c-0.04-0.97,0.84-1.99,1.32-2.98c0.24,0.11,0.48,0.21,0.71,0.32
		c0.06,2.06,0.12,4.12,0.17,6.18C180.28,236.22,179.98,236.36,179.67,236.51z"/>
	<path class="st0" d="M138.54,186.43c1.16,1.64,2.45,3.27,3.5,5.05c0.38,0.64,0.55,1.98,0.18,2.34c-0.49,0.48-1.8,0.67-2.42,0.34
		c-1.63-0.87-3.21-1.94-4.57-3.19c-1.37-1.27-2.7-2.71-3.57-4.34c-0.49-0.92-0.03-2.35,0-3.55c0.89,0.13,1.9,0.03,2.64,0.44
		C135.76,184.31,137.07,185.39,138.54,186.43z"/>
</g>
</svg>
